<?xml version="1.0" encoding="UTF-8" standalone="no"?>
<!DOCTYPE svg PUBLIC "-//W3C//DTD SVG 1.1//EN"
 "http://www.w3.org/Graphics/SVG/1.1/DTD/svg11.dtd">
<!-- Generated by graphviz version 2.38.0 (20140413.2041)
 -->
<!-- Title: controllers_diagram Pages: 1 -->
<svg width="614pt" height="642pt"
 viewBox="0.00 0.00 614.00 642.00" xmlns="http://www.w3.org/2000/svg" xmlns:xlink="http://www.w3.org/1999/xlink">
<g id="graph0" class="graph" transform="scale(1 1) rotate(0) translate(244 382)">
<title>controllers_diagram</title>
<polygon fill="none" stroke="none" points="-244,260 -244,-382 370,-382 370,260 -244,260"/>
<!-- _diagram_info -->
<g id="node1" class="node"><title>_diagram_info</title>
<text text-anchor="start" x="120" y="48.4" font-family="Times,serif" font-size="13.00">Controllers diagram</text>
<text text-anchor="start" x="120" y="62.4" font-family="Times,serif" font-size="13.00">Date: Oct 19 2017 &#45; 15:04</text>
<text text-anchor="start" x="120" y="76.4" font-family="Times,serif" font-size="13.00">Migration version: 20171017022702</text>
<text text-anchor="start" x="120" y="90.4" font-family="Times,serif" font-size="13.00">Generated by RailRoady 1.5.3</text>
<text text-anchor="start" x="120" y="104.4" font-family="Times,serif" font-size="13.00">http://railroady.prestonlee.com</text>
</g>
<!-- CommentsController -->
<g id="node2" class="node"><title>CommentsController</title>
<path fill="none" stroke="black" d="M-228,-240.5C-228,-240.5 -120,-240.5 -120,-240.5 -114,-240.5 -108,-246.5 -108,-252.5 -108,-252.5 -108,-351.5 -108,-351.5 -108,-357.5 -114,-363.5 -120,-363.5 -120,-363.5 -228,-363.5 -228,-363.5 -234,-363.5 -240,-357.5 -240,-351.5 -240,-351.5 -240,-252.5 -240,-252.5 -240,-246.5 -234,-240.5 -228,-240.5"/>
<text text-anchor="middle" x="-174" y="-348.3" font-family="Times,serif" font-size="14.00">CommentsController</text>
<polyline fill="none" stroke="black" points="-240,-340.5 -108,-340.5 "/>
<text text-anchor="start" x="-232" y="-325.3" font-family="Times,serif" font-size="14.00">create</text>
<text text-anchor="start" x="-232" y="-310.3" font-family="Times,serif" font-size="14.00">new</text>
<polyline fill="none" stroke="black" points="-240,-302.5 -108,-302.5 "/>
<polyline fill="none" stroke="black" points="-240,-278.5 -108,-278.5 "/>
<text text-anchor="start" x="-232" y="-263.3" font-family="Times,serif" font-size="14.00">_layout</text>
<text text-anchor="start" x="-232" y="-248.3" font-family="Times,serif" font-size="14.00">comment_params</text>
</g>
<!-- QuestionsController -->
<g id="node3" class="node"><title>QuestionsController</title>
<path fill="none" stroke="black" d="M-68,-80.5C-68,-80.5 34,-80.5 34,-80.5 40,-80.5 46,-86.5 46,-92.5 46,-92.5 46,-235.5 46,-235.5 46,-241.5 40,-247.5 34,-247.5 34,-247.5 -68,-247.5 -68,-247.5 -74,-247.5 -80,-241.5 -80,-235.5 -80,-235.5 -80,-92.5 -80,-92.5 -80,-86.5 -74,-80.5 -68,-80.5"/>
<text text-anchor="middle" x="-17" y="-232.3" font-family="Times,serif" font-size="14.00">QuestionsController</text>
<polyline fill="none" stroke="black" points="-80,-224.5 46,-224.5 "/>
<text text-anchor="start" x="-72" y="-209.3" font-family="Times,serif" font-size="14.00">create</text>
<text text-anchor="start" x="-72" y="-194.3" font-family="Times,serif" font-size="14.00">index</text>
<text text-anchor="start" x="-72" y="-179.3" font-family="Times,serif" font-size="14.00">new</text>
<text text-anchor="start" x="-72" y="-164.3" font-family="Times,serif" font-size="14.00">show</text>
<polyline fill="none" stroke="black" points="-80,-156.5 46,-156.5 "/>
<text text-anchor="start" x="-72" y="-141.3" font-family="Times,serif" font-size="14.00">record_not_found</text>
<polyline fill="none" stroke="black" points="-80,-133.5 46,-133.5 "/>
<text text-anchor="start" x="-72" y="-118.3" font-family="Times,serif" font-size="14.00">_layout</text>
<text text-anchor="start" x="-72" y="-103.3" font-family="Times,serif" font-size="14.00">find_question</text>
<text text-anchor="start" x="-72" y="-88.3" font-family="Times,serif" font-size="14.00">question_params</text>
</g>
<!-- VotesController -->
<g id="node4" class="node"><title>VotesController</title>
<path fill="none" stroke="black" d="M92,-225C92,-225 172,-225 172,-225 178,-225 184,-231 184,-237 184,-237 184,-321 184,-321 184,-327 178,-333 172,-333 172,-333 92,-333 92,-333 86,-333 80,-327 80,-321 80,-321 80,-237 80,-237 80,-231 86,-225 92,-225"/>
<text text-anchor="middle" x="132" y="-317.8" font-family="Times,serif" font-size="14.00">VotesController</text>
<polyline fill="none" stroke="black" points="80,-310 184,-310 "/>
<text text-anchor="start" x="88" y="-294.8" font-family="Times,serif" font-size="14.00">create</text>
<text text-anchor="start" x="88" y="-279.8" font-family="Times,serif" font-size="14.00">destroy</text>
<polyline fill="none" stroke="black" points="80,-272 184,-272 "/>
<polyline fill="none" stroke="black" points="80,-248 184,-248 "/>
<text text-anchor="start" x="88" y="-232.8" font-family="Times,serif" font-size="14.00">_layout</text>
</g>
<!-- Answers::CommentsController -->
<g id="node5" class="node"><title>Answers::CommentsController</title>
<path fill="none" stroke="black" d="M-196.5,207C-196.5,207 -33.5,207 -33.5,207 -27.5,207 -21.5,201 -21.5,195 -21.5,195 -21.5,111 -21.5,111 -21.5,105 -27.5,99 -33.5,99 -33.5,99 -196.5,99 -196.5,99 -202.5,99 -208.5,105 -208.5,111 -208.5,111 -208.5,195 -208.5,195 -208.5,201 -202.5,207 -196.5,207"/>
<text text-anchor="middle" x="-115" y="114.2" font-family="Times,serif" font-size="14.00">Answers::CommentsController</text>
<polyline fill="none" stroke="black" points="-208.5,122 -21.5,122 "/>
<text text-anchor="start" x="-200.5" y="137.2" font-family="Times,serif" font-size="14.00">create</text>
<polyline fill="none" stroke="black" points="-208.5,145 -21.5,145 "/>
<polyline fill="none" stroke="black" points="-208.5,169 -21.5,169 "/>
<text text-anchor="start" x="-200.5" y="184.2" font-family="Times,serif" font-size="14.00">_layout</text>
<text text-anchor="start" x="-200.5" y="199.2" font-family="Times,serif" font-size="14.00">set_commentable</text>
</g>
<!-- Answers::VotesController -->
<g id="node6" class="node"><title>Answers::VotesController</title>
<path fill="none" stroke="black" d="M220,255.5C220,255.5 354,255.5 354,255.5 360,255.5 366,249.5 366,243.5 366,243.5 366,158.5 366,158.5 366,152.5 360,146.5 354,146.5 354,146.5 220,146.5 220,146.5 214,146.5 208,152.5 208,158.5 208,158.5 208,243.5 208,243.5 208,249.5 214,255.5 220,255.5"/>
<text text-anchor="middle" x="287" y="161.7" font-family="Times,serif" font-size="14.00">Answers::VotesController</text>
<polyline fill="none" stroke="black" points="208,169.5 366,169.5 "/>
<polyline fill="none" stroke="black" points="208,193.5 366,193.5 "/>
<polyline fill="none" stroke="black" points="208,217.5 366,217.5 "/>
<text text-anchor="start" x="216" y="232.7" font-family="Times,serif" font-size="14.00">_layout</text>
<text text-anchor="start" x="216" y="247.7" font-family="Times,serif" font-size="14.00">set_voteable</text>
</g>
<!-- ApplicationController -->
<g id="node7" class="node"><title>ApplicationController</title>
<path fill="none" stroke="black" d="M-100,63.5C-100,63.5 70,63.5 70,63.5 76,63.5 82,57.5 82,51.5 82,51.5 82,-31.5 82,-31.5 82,-37.5 76,-43.5 70,-43.5 70,-43.5 -100,-43.5 -100,-43.5 -106,-43.5 -112,-37.5 -112,-31.5 -112,-31.5 -112,51.5 -112,51.5 -112,57.5 -106,63.5 -100,63.5"/>
<text text-anchor="middle" x="-15" y="-28.3" font-family="Times,serif" font-size="14.00">ApplicationController</text>
<polyline fill="none" stroke="black" points="-112,-20.5 82,-20.5 "/>
<text text-anchor="start" x="-104" y="-5.3" font-family="Times,serif" font-size="14.00">private_access</text>
<text text-anchor="start" x="-104" y="9.7" font-family="Times,serif" font-size="14.00">public_access</text>
<polyline fill="none" stroke="black" points="-112,17.5 82,17.5 "/>
<text text-anchor="start" x="-104" y="32.7" font-family="Times,serif" font-size="14.00">configure_permitted_parameters</text>
<polyline fill="none" stroke="black" points="-112,40.5 82,40.5 "/>
<text text-anchor="start" x="-104" y="55.7" font-family="Times,serif" font-size="14.00">_layout</text>
</g>
<!-- AnswersController -->
<g id="node8" class="node"><title>AnswersController</title>
<path fill="none" stroke="black" d="M236.5,-224.5C236.5,-224.5 331.5,-224.5 331.5,-224.5 337.5,-224.5 343.5,-230.5 343.5,-236.5 343.5,-236.5 343.5,-365.5 343.5,-365.5 343.5,-371.5 337.5,-377.5 331.5,-377.5 331.5,-377.5 236.5,-377.5 236.5,-377.5 230.5,-377.5 224.5,-371.5 224.5,-365.5 224.5,-365.5 224.5,-236.5 224.5,-236.5 224.5,-230.5 230.5,-224.5 236.5,-224.5"/>
<text text-anchor="middle" x="284" y="-362.3" font-family="Times,serif" font-size="14.00">AnswersController</text>
<polyline fill="none" stroke="black" points="224.5,-354.5 343.5,-354.5 "/>
<text text-anchor="start" x="232.5" y="-339.3" font-family="Times,serif" font-size="14.00">create</text>
<text text-anchor="start" x="232.5" y="-324.3" font-family="Times,serif" font-size="14.00">new</text>
<polyline fill="none" stroke="black" points="224.5,-316.5 343.5,-316.5 "/>
<polyline fill="none" stroke="black" points="224.5,-292.5 343.5,-292.5 "/>
<text text-anchor="start" x="232.5" y="-277.3" font-family="Times,serif" font-size="14.00">_layout</text>
<text text-anchor="start" x="232.5" y="-262.3" font-family="Times,serif" font-size="14.00">answer_params</text>
<text text-anchor="start" x="232.5" y="-247.3" font-family="Times,serif" font-size="14.00">current_question</text>
<text text-anchor="start" x="232.5" y="-232.3" font-family="Times,serif" font-size="14.00">find_answer</text>
</g>
<!-- Questions::CommentsController -->
<g id="node9" class="node"><title>Questions::CommentsController</title>
<path fill="none" stroke="black" d="M92,-80.5C92,-80.5 262,-80.5 262,-80.5 268,-80.5 274,-86.5 274,-92.5 274,-92.5 274,-177.5 274,-177.5 274,-183.5 268,-189.5 262,-189.5 262,-189.5 92,-189.5 92,-189.5 86,-189.5 80,-183.5 80,-177.5 80,-177.5 80,-92.5 80,-92.5 80,-86.5 86,-80.5 92,-80.5"/>
<text text-anchor="middle" x="177" y="-174.3" font-family="Times,serif" font-size="14.00">Questions::CommentsController</text>
<polyline fill="none" stroke="black" points="80,-166.5 274,-166.5 "/>
<polyline fill="none" stroke="black" points="80,-142.5 274,-142.5 "/>
<polyline fill="none" stroke="black" points="80,-118.5 274,-118.5 "/>
<text text-anchor="start" x="88" y="-103.3" font-family="Times,serif" font-size="14.00">_layout</text>
<text text-anchor="start" x="88" y="-88.3" font-family="Times,serif" font-size="14.00">set_commentable</text>
</g>
<!-- Questions::VotesController -->
<g id="node10" class="node"><title>Questions::VotesController</title>
<path fill="none" stroke="black" d="M28.5,255.5C28.5,255.5 169.5,255.5 169.5,255.5 175.5,255.5 181.5,249.5 181.5,243.5 181.5,243.5 181.5,158.5 181.5,158.5 181.5,152.5 175.5,146.5 169.5,146.5 169.5,146.5 28.5,146.5 28.5,146.5 22.5,146.5 16.5,152.5 16.5,158.5 16.5,158.5 16.5,243.5 16.5,243.5 16.5,249.5 22.5,255.5 28.5,255.5"/>
<text text-anchor="middle" x="99" y="161.7" font-family="Times,serif" font-size="14.00">Questions::VotesController</text>
<polyline fill="none" stroke="black" points="16.5,169.5 181.5,169.5 "/>
<polyline fill="none" stroke="black" points="16.5,193.5 181.5,193.5 "/>
<polyline fill="none" stroke="black" points="16.5,217.5 181.5,217.5 "/>
<text text-anchor="start" x="24.5" y="232.7" font-family="Times,serif" font-size="14.00">_layout</text>
<text text-anchor="start" x="24.5" y="247.7" font-family="Times,serif" font-size="14.00">set_voteable</text>
</g>
</g>
</svg>
