<?xml version="1.0" encoding="UTF-8" standalone="no"?>
<!DOCTYPE svg PUBLIC "-//W3C//DTD SVG 1.1//EN"
 "http://www.w3.org/Graphics/SVG/1.1/DTD/svg11.dtd">
<!-- Generated by graphviz version 2.38.0 (20140413.2041)
 -->
<!-- Title: models_diagram Pages: 1 -->
<svg width="467pt" height="302pt"
 viewBox="0.00 0.00 467.34 302.00" xmlns="http://www.w3.org/2000/svg" xmlns:xlink="http://www.w3.org/1999/xlink">
<g id="graph0" class="graph" transform="scale(1 1) rotate(0) translate(4 298)">
<title>models_diagram</title>
<polygon fill="none" stroke="none" points="-4,4 -4,-298 463.343,-298 463.343,4 -4,4"/>
<!-- _diagram_info -->
<g id="node1" class="node"><title>_diagram_info</title>
<text text-anchor="start" x="8" y="-279.6" font-family="Times,serif" font-size="13.00">Models diagram</text>
<text text-anchor="start" x="8" y="-265.6" font-family="Times,serif" font-size="13.00">Date: Oct 19 2017 &#45; 15:04</text>
<text text-anchor="start" x="8" y="-251.6" font-family="Times,serif" font-size="13.00">Migration version: 20171017022702</text>
<text text-anchor="start" x="8" y="-237.6" font-family="Times,serif" font-size="13.00">Generated by RailRoady 1.5.3</text>
<text text-anchor="start" x="8" y="-223.6" font-family="Times,serif" font-size="13.00">http://railroady.prestonlee.com</text>
</g>
<!-- Answer -->
<g id="node2" class="node"><title>Answer</title>
<ellipse fill="none" stroke="black" cx="292" cy="-90" rx="38.1938" ry="18"/>
<text text-anchor="middle" x="292" y="-86.3" font-family="Times,serif" font-size="14.00">Answer</text>
</g>
<!-- Vote -->
<g id="node5" class="node"><title>Vote</title>
<ellipse fill="none" stroke="black" cx="188" cy="-18" rx="27.8951" ry="18"/>
<text text-anchor="middle" x="188" y="-14.3" font-family="Times,serif" font-size="14.00">Vote</text>
</g>
<!-- Answer&#45;&gt;Vote -->
<g id="edge2" class="edge"><title>Answer&#45;&gt;Vote</title>
<path fill="none" stroke="#0a803d" d="M263.995,-70.1504C248.768,-59.9014 230.025,-47.2859 214.963,-37.1481"/>
<ellipse fill="none" stroke="#0a803d" cx="267.636" cy="-72.6009" rx="4.00002" ry="4.00002"/>
<polygon fill="#0a803d" stroke="#0a803d" points="214.87,-37.0858 209.087,-27.7688 210.722,-34.2939 206.574,-31.502 206.574,-31.502 206.574,-31.502 210.722,-34.2939 204.062,-35.2351 214.87,-37.0858 214.87,-37.0858"/>
</g>
<!-- Comment -->
<g id="node7" class="node"><title>Comment</title>
<ellipse fill="none" stroke="black" cx="292" cy="-18" rx="46.2923" ry="18"/>
<text text-anchor="middle" x="292" y="-14.3" font-family="Times,serif" font-size="14.00">Comment</text>
</g>
<!-- Answer&#45;&gt;Comment -->
<g id="edge1" class="edge"><title>Answer&#45;&gt;Comment</title>
<path fill="none" stroke="#f9511a" d="M292,-63.6398C292,-58.0629 292,-52.1319 292,-46.4761"/>
<ellipse fill="none" stroke="#f9511a" cx="292" cy="-67.6966" rx="4" ry="4"/>
<polygon fill="#f9511a" stroke="#f9511a" points="292,-46.1043 296.5,-36.1043 292,-41.1043 292,-36.1043 292,-36.1043 292,-36.1043 292,-41.1043 287.5,-36.1044 292,-46.1043 292,-46.1043"/>
</g>
<!-- ApplicationRecord -->
<g id="node3" class="node"><title>ApplicationRecord</title>
<ellipse fill="none" stroke="black" cx="382" cy="-255" rx="77.1866" ry="18"/>
<text text-anchor="middle" x="382" y="-251.3" font-family="Times,serif" font-size="14.00">ApplicationRecord</text>
</g>
<!-- Question -->
<g id="node4" class="node"><title>Question</title>
<ellipse fill="none" stroke="black" cx="224" cy="-162" rx="42.4939" ry="18"/>
<text text-anchor="middle" x="224" y="-158.3" font-family="Times,serif" font-size="14.00">Question</text>
</g>
<!-- Question&#45;&gt;Answer -->
<g id="edge5" class="edge"><title>Question&#45;&gt;Answer</title>
<path fill="none" stroke="#b7f894" d="M245.183,-139.194C252.818,-131.334 261.464,-122.434 269.229,-114.441"/>
<ellipse fill="none" stroke="#b7f894" cx="242.217" cy="-142.247" rx="4.00002" ry="4.00002"/>
<polygon fill="#b7f894" stroke="#b7f894" points="269.663,-113.994 279.859,-109.957 273.147,-110.408 276.631,-106.821 276.631,-106.821 276.631,-106.821 273.147,-110.408 273.403,-103.686 269.663,-113.994 269.663,-113.994"/>
</g>
<!-- Question&#45;&gt;Vote -->
<g id="edge4" class="edge"><title>Question&#45;&gt;Vote</title>
<path fill="none" stroke="#ec2bb8" d="M217.644,-135.929C211.254,-110.725 201.435,-71.9942 194.869,-46.0947"/>
<ellipse fill="none" stroke="#ec2bb8" cx="218.675" cy="-139.994" rx="4.00001" ry="4.00001"/>
<polygon fill="#ec2bb8" stroke="#ec2bb8" points="194.815,-45.8826 196.72,-35.0834 193.587,-41.0359 192.358,-36.1893 192.358,-36.1893 192.358,-36.1893 193.587,-41.0359 187.996,-37.2952 194.815,-45.8826 194.815,-45.8826"/>
</g>
<!-- Question&#45;&gt;Comment -->
<g id="edge3" class="edge"><title>Question&#45;&gt;Comment</title>
<path fill="none" stroke="#d6bd97" d="M226.595,-135.761C229.276,-117.283 234.602,-92.0414 245,-72 250.55,-61.3019 258.739,-51.0276 266.732,-42.4204"/>
<ellipse fill="none" stroke="#d6bd97" cx="226.066" cy="-139.767" rx="4.00001" ry="4.00001"/>
<polygon fill="#d6bd97" stroke="#d6bd97" points="266.961,-42.1853 277.161,-38.1593 270.449,-38.6027 273.937,-35.0202 273.937,-35.0202 273.937,-35.0202 270.449,-38.6027 270.713,-31.8811 266.961,-42.1853 266.961,-42.1853"/>
</g>
<!-- User -->
<g id="node6" class="node"><title>User</title>
<ellipse fill="none" stroke="black" cx="259" cy="-255" rx="27.0966" ry="18"/>
<text text-anchor="middle" x="259" y="-251.3" font-family="Times,serif" font-size="14.00">User</text>
</g>
<!-- User&#45;&gt;Answer -->
<g id="edge7" class="edge"><title>User&#45;&gt;Answer</title>
<path fill="none" stroke="#7edeca" d="M264.552,-229.048C267.702,-214.715 271.668,-196.366 275,-180 279.21,-159.32 283.676,-135.873 286.974,-118.238"/>
<ellipse fill="none" stroke="#7edeca" cx="263.665" cy="-233.071" rx="4.00001" ry="4.00001"/>
<polygon fill="#7edeca" stroke="#7edeca" points="287.034,-117.917 293.287,-108.909 287.948,-113.002 288.863,-108.086 288.863,-108.086 288.863,-108.086 287.948,-113.002 284.439,-107.263 287.034,-117.917 287.034,-117.917"/>
</g>
<!-- User&#45;&gt;Question -->
<g id="edge6" class="edge"><title>User&#45;&gt;Question</title>
<path fill="none" stroke="#6c8f25" d="M249.593,-229.543C244.828,-217.152 239.035,-202.09 234.166,-189.432"/>
<ellipse fill="none" stroke="#6c8f25" cx="251.145" cy="-233.576" rx="4.00001" ry="4.00001"/>
<polygon fill="#6c8f25" stroke="#6c8f25" points="234.087,-189.227 234.697,-178.278 232.292,-184.56 230.497,-179.893 230.497,-179.893 230.497,-179.893 232.292,-184.56 226.297,-181.509 234.087,-189.227 234.087,-189.227"/>
</g>
<!-- User&#45;&gt;Vote -->
<g id="edge9" class="edge"><title>User&#45;&gt;Vote</title>
<path fill="none" stroke="#d1f419" d="M240.367,-232.917C234.97,-227.21 228.93,-221.182 223,-216 202.381,-197.981 185.484,-204.372 173,-180 150.847,-136.752 165.509,-78.3828 177.329,-45.1127"/>
<ellipse fill="none" stroke="#d1f419" cx="243.216" cy="-235.995" rx="4.00002" ry="4.00002"/>
<polygon fill="#d1f419" stroke="#d1f419" points="177.368,-45.0075 185.079,-37.2101 179.115,-40.3227 180.862,-35.6378 180.862,-35.6378 180.862,-35.6378 179.115,-40.3227 176.646,-34.0655 177.368,-45.0075 177.368,-45.0075"/>
</g>
<!-- User&#45;&gt;Comment -->
<g id="edge8" class="edge"><title>User&#45;&gt;Comment</title>
<path fill="none" stroke="#088268" d="M275.704,-232.019C295.333,-204.678 326.774,-155.753 339,-108 342.968,-92.4999 344.677,-86.9589 339,-72 334.68,-60.617 326.672,-50.1118 318.475,-41.5078"/>
<ellipse fill="none" stroke="#088268" cx="273.343" cy="-235.259" rx="4.00002" ry="4.00002"/>
<polygon fill="#088268" stroke="#088268" points="318.44,-41.4739 314.466,-31.2535 314.876,-37.9679 311.311,-34.4619 311.311,-34.4619 311.311,-34.4619 314.876,-37.9679 308.155,-37.6703 318.44,-41.4739 318.44,-41.4739"/>
</g>
</g>
</svg>
