<?xml version="1.0" encoding="UTF-8" standalone="no"?>
<!DOCTYPE svg PUBLIC "-//W3C//DTD SVG 1.1//EN"
 "http://www.w3.org/Graphics/SVG/1.1/DTD/svg11.dtd">
<!-- Generated by graphviz version 2.38.0 (20140413.2041)
 -->
<!-- Title: models_diagram Pages: 1 -->
<svg width="612pt" height="739pt"
 viewBox="0.00 0.00 612.34 739.00" xmlns="http://www.w3.org/2000/svg" xmlns:xlink="http://www.w3.org/1999/xlink">
<g id="graph0" class="graph" transform="scale(1 1) rotate(0) translate(4 735)">
<title>models_diagram</title>
<polygon fill="none" stroke="none" points="-4,4 -4,-735 608.343,-735 608.343,4 -4,4"/>
<!-- _diagram_info -->
<g id="node1" class="node"><title>_diagram_info</title>
<text text-anchor="start" x="8" y="-634.6" font-family="Times,serif" font-size="13.00">Models diagram</text>
<text text-anchor="start" x="8" y="-620.6" font-family="Times,serif" font-size="13.00">Date: Oct 19 2017 &#45; 15:04</text>
<text text-anchor="start" x="8" y="-606.6" font-family="Times,serif" font-size="13.00">Migration version: 20171017022702</text>
<text text-anchor="start" x="8" y="-592.6" font-family="Times,serif" font-size="13.00">Generated by RailRoady 1.5.3</text>
<text text-anchor="start" x="8" y="-578.6" font-family="Times,serif" font-size="13.00">http://railroady.prestonlee.com</text>
</g>
<!-- Answer -->
<g id="node2" class="node"><title>Answer</title>
<path fill="none" stroke="black" d="M309.5,-173.5C309.5,-173.5 416.5,-173.5 416.5,-173.5 422.5,-173.5 428.5,-179.5 428.5,-185.5 428.5,-185.5 428.5,-282.5 428.5,-282.5 428.5,-288.5 422.5,-294.5 416.5,-294.5 416.5,-294.5 309.5,-294.5 309.5,-294.5 303.5,-294.5 297.5,-288.5 297.5,-282.5 297.5,-282.5 297.5,-185.5 297.5,-185.5 297.5,-179.5 303.5,-173.5 309.5,-173.5"/>
<text text-anchor="middle" x="363" y="-279.3" font-family="Times,serif" font-size="14.00">Answer</text>
<polyline fill="none" stroke="black" points="297.5,-271.5 428.5,-271.5 "/>
<text text-anchor="start" x="305.5" y="-256.3" font-family="Times,serif" font-size="14.00">id :INTEGER</text>
<text text-anchor="start" x="305.5" y="-241.3" font-family="Times,serif" font-size="14.00">body :text</text>
<text text-anchor="start" x="305.5" y="-226.3" font-family="Times,serif" font-size="14.00">user_id :integer</text>
<text text-anchor="start" x="305.5" y="-211.3" font-family="Times,serif" font-size="14.00">question_id :integer</text>
<text text-anchor="start" x="305.5" y="-196.3" font-family="Times,serif" font-size="14.00">created_at :datetime</text>
<text text-anchor="start" x="305.5" y="-181.3" font-family="Times,serif" font-size="14.00">updated_at :datetime</text>
</g>
<!-- Vote -->
<g id="node5" class="node"><title>Vote</title>
<path fill="none" stroke="black" d="M152,-8C152,-8 268,-8 268,-8 274,-8 280,-14 280,-20 280,-20 280,-117 280,-117 280,-123 274,-129 268,-129 268,-129 152,-129 152,-129 146,-129 140,-123 140,-117 140,-117 140,-20 140,-20 140,-14 146,-8 152,-8"/>
<text text-anchor="middle" x="210" y="-113.8" font-family="Times,serif" font-size="14.00">Vote</text>
<polyline fill="none" stroke="black" points="140,-106 280,-106 "/>
<text text-anchor="start" x="148" y="-90.8" font-family="Times,serif" font-size="14.00">id :INTEGER</text>
<text text-anchor="start" x="148" y="-75.8" font-family="Times,serif" font-size="14.00">voteable_type :varchar</text>
<text text-anchor="start" x="148" y="-60.8" font-family="Times,serif" font-size="14.00">voteable_id :integer</text>
<text text-anchor="start" x="148" y="-45.8" font-family="Times,serif" font-size="14.00">created_at :datetime</text>
<text text-anchor="start" x="148" y="-30.8" font-family="Times,serif" font-size="14.00">updated_at :datetime</text>
<text text-anchor="start" x="148" y="-15.8" font-family="Times,serif" font-size="14.00">user_id :integer</text>
</g>
<!-- Answer&#45;&gt;Vote -->
<g id="edge2" class="edge"><title>Answer&#45;&gt;Vote</title>
<path fill="none" stroke="#928e4c" d="M301.2,-166.959C291.882,-157.001 282.261,-146.72 272.92,-136.738"/>
<ellipse fill="none" stroke="#928e4c" cx="304.164" cy="-170.126" rx="4.00002" ry="4.00002"/>
<polygon fill="#928e4c" stroke="#928e4c" points="272.673,-136.474 269.126,-126.098 269.257,-132.823 265.84,-129.172 265.84,-129.172 265.84,-129.172 269.257,-132.823 262.555,-132.247 272.673,-136.474 272.673,-136.474"/>
</g>
<!-- Comment -->
<g id="node7" class="node"><title>Comment</title>
<path fill="none" stroke="black" d="M310.5,-0.5C310.5,-0.5 455.5,-0.5 455.5,-0.5 461.5,-0.5 467.5,-6.5 467.5,-12.5 467.5,-12.5 467.5,-124.5 467.5,-124.5 467.5,-130.5 461.5,-136.5 455.5,-136.5 455.5,-136.5 310.5,-136.5 310.5,-136.5 304.5,-136.5 298.5,-130.5 298.5,-124.5 298.5,-124.5 298.5,-12.5 298.5,-12.5 298.5,-6.5 304.5,-0.5 310.5,-0.5"/>
<text text-anchor="middle" x="383" y="-121.3" font-family="Times,serif" font-size="14.00">Comment</text>
<polyline fill="none" stroke="black" points="298.5,-113.5 467.5,-113.5 "/>
<text text-anchor="start" x="306.5" y="-98.3" font-family="Times,serif" font-size="14.00">id :INTEGER</text>
<text text-anchor="start" x="306.5" y="-83.3" font-family="Times,serif" font-size="14.00">commentable_type :varchar</text>
<text text-anchor="start" x="306.5" y="-68.3" font-family="Times,serif" font-size="14.00">commentable_id :integer</text>
<text text-anchor="start" x="306.5" y="-53.3" font-family="Times,serif" font-size="14.00">body :text</text>
<text text-anchor="start" x="306.5" y="-38.3" font-family="Times,serif" font-size="14.00">created_at :datetime</text>
<text text-anchor="start" x="306.5" y="-23.3" font-family="Times,serif" font-size="14.00">updated_at :datetime</text>
<text text-anchor="start" x="306.5" y="-8.3" font-family="Times,serif" font-size="14.00">user_id :integer</text>
</g>
<!-- Answer&#45;&gt;Comment -->
<g id="edge1" class="edge"><title>Answer&#45;&gt;Comment</title>
<path fill="none" stroke="#e82766" d="M371.33,-164.905C372.062,-158.915 372.807,-152.824 373.549,-146.766"/>
<ellipse fill="none" stroke="#e82766" cx="370.819" cy="-169.077" rx="4.00001" ry="4.00001"/>
<polygon fill="#e82766" stroke="#e82766" points="373.575,-146.551 379.256,-137.171 374.182,-141.588 374.789,-136.625 374.789,-136.625 374.789,-136.625 374.182,-141.588 370.322,-136.078 373.575,-146.551 373.575,-146.551"/>
</g>
<!-- ApplicationRecord -->
<g id="node3" class="node"><title>ApplicationRecord</title>
<ellipse fill="none" stroke="black" cx="527" cy="-610" rx="77.1866" ry="18"/>
<text text-anchor="middle" x="527" y="-606.3" font-family="Times,serif" font-size="14.00">ApplicationRecord</text>
</g>
<!-- Question -->
<g id="node4" class="node"><title>Question</title>
<path fill="none" stroke="black" d="M231.5,-331.5C231.5,-331.5 338.5,-331.5 338.5,-331.5 344.5,-331.5 350.5,-337.5 350.5,-343.5 350.5,-343.5 350.5,-440.5 350.5,-440.5 350.5,-446.5 344.5,-452.5 338.5,-452.5 338.5,-452.5 231.5,-452.5 231.5,-452.5 225.5,-452.5 219.5,-446.5 219.5,-440.5 219.5,-440.5 219.5,-343.5 219.5,-343.5 219.5,-337.5 225.5,-331.5 231.5,-331.5"/>
<text text-anchor="middle" x="285" y="-437.3" font-family="Times,serif" font-size="14.00">Question</text>
<polyline fill="none" stroke="black" points="219.5,-429.5 350.5,-429.5 "/>
<text text-anchor="start" x="227.5" y="-414.3" font-family="Times,serif" font-size="14.00">id :INTEGER</text>
<text text-anchor="start" x="227.5" y="-399.3" font-family="Times,serif" font-size="14.00">title :varchar</text>
<text text-anchor="start" x="227.5" y="-384.3" font-family="Times,serif" font-size="14.00">body :text</text>
<text text-anchor="start" x="227.5" y="-369.3" font-family="Times,serif" font-size="14.00">user_id :integer</text>
<text text-anchor="start" x="227.5" y="-354.3" font-family="Times,serif" font-size="14.00">created_at :datetime</text>
<text text-anchor="start" x="227.5" y="-339.3" font-family="Times,serif" font-size="14.00">updated_at :datetime</text>
</g>
<!-- Question&#45;&gt;Answer -->
<g id="edge5" class="edge"><title>Question&#45;&gt;Answer</title>
<path fill="none" stroke="#21a581" d="M318.605,-323.79C321.93,-317.141 325.308,-310.384 328.64,-303.72"/>
<ellipse fill="none" stroke="#21a581" cx="316.723" cy="-327.555" rx="4.00002" ry="4.00002"/>
<polygon fill="#21a581" stroke="#21a581" points="328.674,-303.652 337.171,-296.72 330.91,-299.179 333.146,-294.707 333.146,-294.707 333.146,-294.707 330.91,-299.179 329.121,-292.695 328.674,-303.652 328.674,-303.652"/>
</g>
<!-- Question&#45;&gt;Vote -->
<g id="edge4" class="edge"><title>Question&#45;&gt;Vote</title>
<path fill="none" stroke="#11da7b" d="M262.904,-323.436C260.084,-313.933 257.362,-304.253 255,-295 241.781,-243.216 230.082,-183.924 221.927,-139.138"/>
<ellipse fill="none" stroke="#11da7b" cx="264.137" cy="-327.534" rx="4.00001" ry="4.00001"/>
<polygon fill="#11da7b" stroke="#11da7b" points="221.916,-139.076 224.567,-128.435 221.027,-134.156 220.139,-129.235 220.139,-129.235 220.139,-129.235 221.027,-134.156 215.71,-130.035 221.916,-139.076 221.916,-139.076"/>
</g>
<!-- Question&#45;&gt;Comment -->
<g id="edge3" class="edge"><title>Question&#45;&gt;Comment</title>
<path fill="none" stroke="#cd2259" d="M274.253,-323.318C270.066,-279.008 270.069,-220.696 289,-173 292.868,-163.255 298.107,-153.851 304.144,-144.952"/>
<ellipse fill="none" stroke="#cd2259" cx="274.674" cy="-327.444" rx="4" ry="4"/>
<polygon fill="#cd2259" stroke="#cd2259" points="304.324,-144.701 313.813,-139.205 307.241,-140.64 310.158,-136.579 310.158,-136.579 310.158,-136.579 307.241,-140.64 306.503,-133.954 304.324,-144.701 304.324,-144.701"/>
</g>
<!-- User -->
<g id="node6" class="node"><title>User</title>
<path fill="none" stroke="black" d="M244,-489.5C244,-489.5 420,-489.5 420,-489.5 426,-489.5 432,-495.5 432,-501.5 432,-501.5 432,-718.5 432,-718.5 432,-724.5 426,-730.5 420,-730.5 420,-730.5 244,-730.5 244,-730.5 238,-730.5 232,-724.5 232,-718.5 232,-718.5 232,-501.5 232,-501.5 232,-495.5 238,-489.5 244,-489.5"/>
<text text-anchor="middle" x="332" y="-715.3" font-family="Times,serif" font-size="14.00">User</text>
<polyline fill="none" stroke="black" points="232,-707.5 432,-707.5 "/>
<text text-anchor="start" x="240" y="-692.3" font-family="Times,serif" font-size="14.00">id :INTEGER</text>
<text text-anchor="start" x="240" y="-677.3" font-family="Times,serif" font-size="14.00">email :varchar</text>
<text text-anchor="start" x="240" y="-662.3" font-family="Times,serif" font-size="14.00">encrypted_password :varchar</text>
<text text-anchor="start" x="240" y="-647.3" font-family="Times,serif" font-size="14.00">reset_password_token :varchar</text>
<text text-anchor="start" x="240" y="-632.3" font-family="Times,serif" font-size="14.00">reset_password_sent_at :datetime</text>
<text text-anchor="start" x="240" y="-617.3" font-family="Times,serif" font-size="14.00">remember_created_at :datetime</text>
<text text-anchor="start" x="240" y="-602.3" font-family="Times,serif" font-size="14.00">sign_in_count :integer</text>
<text text-anchor="start" x="240" y="-587.3" font-family="Times,serif" font-size="14.00">current_sign_in_at :datetime</text>
<text text-anchor="start" x="240" y="-572.3" font-family="Times,serif" font-size="14.00">last_sign_in_at :datetime</text>
<text text-anchor="start" x="240" y="-557.3" font-family="Times,serif" font-size="14.00">current_sign_in_ip :varchar</text>
<text text-anchor="start" x="240" y="-542.3" font-family="Times,serif" font-size="14.00">last_sign_in_ip :varchar</text>
<text text-anchor="start" x="240" y="-527.3" font-family="Times,serif" font-size="14.00">created_at :datetime</text>
<text text-anchor="start" x="240" y="-512.3" font-family="Times,serif" font-size="14.00">updated_at :datetime</text>
<text text-anchor="start" x="240" y="-497.3" font-family="Times,serif" font-size="14.00">fullname :varchar</text>
</g>
<!-- User&#45;&gt;Answer -->
<g id="edge7" class="edge"><title>User&#45;&gt;Answer</title>
<path fill="none" stroke="#fbd3a5" d="M356.681,-481.189C357.983,-471.674 359.117,-462.201 360,-453 364.737,-403.643 365.411,-347.716 364.941,-304.867"/>
<ellipse fill="none" stroke="#fbd3a5" cx="356.109" cy="-485.225" rx="4.00001" ry="4.00001"/>
<polygon fill="#fbd3a5" stroke="#fbd3a5" points="364.94,-304.823 369.307,-294.764 364.874,-299.824 364.807,-294.824 364.807,-294.824 364.807,-294.824 364.874,-299.824 360.308,-294.884 364.94,-304.823 364.94,-304.823"/>
</g>
<!-- User&#45;&gt;Question -->
<g id="edge6" class="edge"><title>User&#45;&gt;Question</title>
<path fill="none" stroke="#aa20c2" d="M304.222,-481.341C302.844,-475.007 301.486,-468.766 300.168,-462.71"/>
<ellipse fill="none" stroke="#aa20c2" cx="305.107" cy="-485.405" rx="4.00001" ry="4.00001"/>
<polygon fill="#aa20c2" stroke="#aa20c2" points="300.118,-462.479 302.389,-451.751 299.055,-457.593 297.992,-452.708 297.992,-452.708 297.992,-452.708 299.055,-457.593 293.595,-453.665 300.118,-462.479 300.118,-462.479"/>
</g>
<!-- User&#45;&gt;Vote -->
<g id="edge9" class="edge"><title>User&#45;&gt;Vote</title>
<path fill="none" stroke="#67df85" d="M227.871,-489.889C221.138,-477.969 215.332,-465.599 211,-453 175.055,-348.454 185.318,-218.19 196.969,-139.552"/>
<ellipse fill="none" stroke="#67df85" cx="229.921" cy="-493.399" rx="4.00002" ry="4.00002"/>
<polygon fill="#67df85" stroke="#67df85" points="197.028,-139.164 202.991,-129.961 197.785,-134.222 198.543,-129.279 198.543,-129.279 198.543,-129.279 197.785,-134.222 194.094,-128.598 197.028,-139.164 197.028,-139.164"/>
</g>
<!-- User&#45;&gt;Comment -->
<g id="edge8" class="edge"><title>User&#45;&gt;Comment</title>
<path fill="none" stroke="#9980be" d="M385.391,-481.948C406.249,-425.734 427.626,-358.166 438,-295 446.788,-241.495 451.111,-225.613 438,-173 435.736,-163.914 432.509,-154.751 428.738,-145.832"/>
<ellipse fill="none" stroke="#9980be" cx="383.987" cy="-485.702" rx="4.00001" ry="4.00001"/>
<polygon fill="#9980be" stroke="#9980be" points="428.709,-145.768 428.737,-134.802 426.669,-141.203 424.629,-136.638 424.629,-136.638 424.629,-136.638 426.669,-141.203 420.521,-138.474 428.709,-145.768 428.709,-145.768"/>
</g>
</g>
</svg>
